# AST/ASF file generated using VICON BodyLanguage
# -----------------------------------------------
:version 1.10
:name VICON
:units
  mass 1.0
  length 0.45
  angle deg
:documentation
   .ast/.asf automatically generated from VICON data using
   VICON BodyBuilder and BodyLanguage model FoxedUp or BRILLIANT.MOD
:root
   order TX TY TZ RX RY RZ
   axis XYZ
   position 0 0 0  
   orientation 0 0 0 
:bonedata
  begin
     id 1 
     name lhipjoint
     direction 0.650112 -0.723553 0.232005 
     length 2.45805 
     axis 0 0 0  XYZ
  end
  begin
     id 2 
     name lfemur
     direction 0.34202 -0.939693 0  
     length 7.00073  
     axis 0 0 20  XYZ
    dof rx ry rz
    limits (-160.0 20.0)
           (-70.0 70.0)
           (-60.0 70.0)
  end
  begin
     id 3 
     name ltibia
     direction 0.34202 -0.939693 0   
     length 7.8748   
     axis 0 0 20   XYZ
    dof rx
    limits (-10.0 170.0)
  end
  begin
     id 4 
     name lfoot
     direction 0.0542825 -0.14914 0.987325   
     length 1.75978   
     axis -90 7.62852e-016 20   XYZ
    dof rx rz
    limits (-45.0 90.0)
           (-70.0 20.0)
  end
  begin
     id 5 
     name ltoes
     direction 1.53509e-011 -4.21906e-011 1   
     length 0.893912   
     axis -90 7.62852e-016 20   XYZ
    dof rx
    limits (-90.0 20.0)
  end
  begin
     id 6 
     name rhipjoint
     direction -0.637897 -0.733345 0.235145   
     length 2.42522  
     axis 0 0 0  XYZ 
  end
  begin
     id 7 
     name rfemur
     direction -0.34202 -0.939693 0   
     length 7.02549   
     axis 0 0 -20   XYZ
    dof rx ry rz
    limits (-160.0 20.0)
           (-70.0 70.0)
           (-70.0 60.0)
  end
  begin
     id 8 
     name rtibia
     direction -0.34202 -0.939693 0   
     length 7.71512   
     axis 0 0 -20   XYZ
    dof rx
    limits (-10.0 170.0)
 end
 begin
     id 9 
     name rfoot
     direction -0.0822618 -0.226012 0.970645   
     length 1.90014  
     axis -90 -7.62852e-016 -20   XYZ
    dof rx rz
    limits (-45.0 90.0)
           (-20.0 70.0)
  end
  begin
     id 10 
     name rtoes
     direction -1.53542e-011 -4.21872e-011 1   
     length 0.957341   
     axis -90 -7.62852e-016 -20   XYZ
    dof rx
    limits (-90.0 20.0)
  end
  begin
     id 11 
     name lowerback
     direction -0.0022947 0.999774 -0.0211557   
     length 1.89909   
     axis 0 0 0   XYZ
    dof rx ry rz
    limits (-20.0 45.0)
           (-30.0 30.0)
           (-30.0 30.0)
  end
  begin
     id 12 
     name upperback
     direction 0.0107737 0.998635 0.0511027   
     length 1.8853   
     axis 0 0 0   XYZ
    dof rx ry rz
    limits (-20.0 45.0)
           (-30.0 30.0)
           (-30.0 30.0)
  end
  begin
     id 13 
     name thorax
     direction 0.011824 0.998136 0.0598754   
     length 1.88911   
     axis 0 0 0   XYZ
    dof rx ry rz
    limits (-20.0 45.0)
           (-30.0 30.0)
           (-30.0 30.0)
  end
  begin
     id 14 
     name lowerneck
     direction -0.0685355 0.990319 0.120714   
     length 1.91222   
     axis 0 0 0   XYZ
    dof rx ry rz
    limits (-20.0 45.0)
           (-30.0 30.0)
           (-30.0 30.0)
  end
  begin
     id 15 
     name upperneck
     direction 0.0886204 0.955665 -0.280805   
     length 1.92526   
     axis 0 0 0   XYZ
    dof rx ry rz
    limits (-20.0 45.0)
           (-30.0 30.0)
           (-30.0 30.0)
  end
  begin
     id 16
     name head
     direction 0.0233423 0.993502 -0.111393  
     length 1.96056  
     axis 0 0 0   XYZ
    dof rx ry rz
    limits (-20.0 45.0)
           (-30.0 30.0)
           (-30.0 30.0)
  end
  begin
     id 17 
     name lclavicle
     direction 0.941873 0.32922 0.0670041  
     length 3.31705  
     axis 0 0 0   XYZ
    dof ry rz
    limits (-20.0 10.0)
           (0.0 20.0)
  end
  begin
     id 18 
     name lhumerus
     direction 1 -4.4898e-011 3.38707e-028   
     length 5.29277   
     axis 180 -30 -90   XYZ
    dof rx ry rz
    limits (-60.0 90.0)
           (-90.0 90.0)
           (-90.0 90.0)
  end
  begin
     id 19
     name lradius
     direction 1 -4.48952e-011 1.63213e-028   
     length 2.85226   
     axis 180 -30 -90   XYZ
    dof rx
    limits (-10.0 170.0)
  end
  begin
     id 20
     name lwrist
     direction 1 -4.49001e-011 1.27856e-027   
     length 1.42613   
     axis -1.61767e-015 90 90   XYZ
    dof ry
    limits (-180.0 0.0)
 end
  begin
     id 21 
     name lhand
     direction 1 -4.48976e-011 2.55931e-027   
     length 0.602097   
     axis -1.63363e-015 90 90   XYZ
    dof rx rz
    limits (-90.0 90.0)
           (-45.0 45.0)
  end
  begin
     id 22 
     name lfingers
     direction 1 -4.48986e-011 5.11684e-027   
     length 0.485426   
     axis -3.26723e-015 90 90   XYZ
    dof rx
    limits (0.0 90.0)
  end
  begin
     id 23
     name lthumb
     direction 0.707107 -6.34915e-011 0.707107   
     length 0.696978   
     axis -90 45 -2.25915e-014   XYZ
    dof rx rz
    limits (-45.0 45.0)
           (-45.0 45.0)
  end
  begin
     id 24 
     name rclavicle
     direction -0.939974 0.327078 0.0973096   
     length 3.10337  
     axis 0 0 0   XYZ 
    dof ry rz
    limits (-10.0 20.0)
           (-20.0 0.0)
  end
  begin
     id 25 
     name rhumerus
     direction -1 -4.48975e-011 1.83745e-027  
     length 5.13304   
     axis 180 30 90   XYZ
    dof rx ry rz
    limits (-90.0 60.0)
           (-90.0 90.0)
           (-90.0 90.0)
  end
  begin
     id 26 
     name rradius
     direction -1 -4.48977e-011 7.1775e-029   
     length 2.74305   
     axis 180 30 90   XYZ
    dof rx
    limits (-10.0 170.0)
  end
  begin
     id 27 
     name rwrist
     direction -1 -4.48977e-011 1.27963e-027   
     length 1.37152   
     axis -1.61767e-015 -90 -90   XYZ
    dof ry
    limits (-180.0 0.0)
  end
  begin
     id 28
     name rhand
     direction -1 -4.4888e-011 2.56782e-027   
     length 0.767976   
     axis -1.63363e-015 -90 -90   XYZ
    dof rx rz
    limits (-90.0 90.0)
           (-45.0 45.0)
  end
  begin
     id 29
     name rfingers
     direction -1 -4.48947e-011 5.12384e-027   
     length 0.619162   
     axis -3.26723e-015 -90 -90   XYZ
    dof rx
    limits (0.0 90.0)
  end
  begin
     id 30
     name rthumb
     direction -0.707107 -6.34857e-011 0.707107   
     length 0.888997   
     axis -90 -45 2.25915e-014   XYZ
    dof rx rz
    limits (-45.0 45.0)
           (-45.0 45.0)
  end
:hierarchy
  begin
    root lhipjoint rhipjoint lowerback
    lhipjoint lfemur
    lfemur ltibia
    ltibia lfoot
    lfoot ltoes
    rhipjoint rfemur
    rfemur rtibia
    rtibia rfoot
    rfoot rtoes
    lowerback upperback
    upperback thorax
    thorax lowerneck lclavicle rclavicle
    lowerneck upperneck
    upperneck head
    lclavicle lhumerus
    lhumerus lradius
    lradius lwrist
    lwrist lhand lthumb
    lhand lfingers
    rclavicle rhumerus
    rhumerus rradius
    rradius rwrist
    rwrist rhand rthumb
    rhand rfingers
  end

#!OML:ASF F:\VICON\USERDATA\INSTALL\rory3\rory3.ASF
:FULLY-SPECIFIED
:DEGREES
855
root 0.301809 16.8137 -0.350867 -9.52011 3.43809 -0.986952
lowerback 0.137959 -0.767504 -1.90602
upperback 7.45942 -1.10147 2.35898
thorax 7.81444 -0.762629 3.4764
lowerneck 15.1525 -6.70967 -20.6796
upperneck 13.695 -13.4229 18.8732
head 4.25621 -7.47837 9.46225
rclavicle 4.27387e-015 -7.15625e-015
rhumerus 29.0067 38.9373 6.46321
rradius 146.875
rwrist -48.8481
rhand 11.9735 14.5389
rfingers 7.12502
rthumb 36.9957 -11.5267
lclavicle 4.27387e-015 -7.15625e-015
lhumerus 38.6782 -39.179 -1.52264
lradius 144.644
lwrist 60.1373
lhand 20.2751 22.6804
lfingers 7.12502
lthumb 44.7913 46.2617
rfemur 3.46776 2.87692 19.2783
rtibia 28.5901
rfoot -22.7516 -9.87747
rtoes -23.841
lfemur -0.309847 -7.70349 -20.06
ltibia 33.4462
lfoot -22.1136 3.61303
ltoes -16.3964
856
root 0.303466 16.8152 -0.359815 -9.46882 3.42239 -0.975285
lowerback 0.0975377 -0.83692 -1.9192
upperback 7.5735 -1.1947 2.34549
thorax 7.97002 -0.813102 3.46332
lowerneck 15.1019 -6.69891 -20.576
upperneck 13.7342 -13.3741 18.7475
head 4.25146 -7.44743 9.40002
rclavicle -2.1419e-014 2.5842e-014
rhumerus 30.9881 37.9309 9.97715
rradius 146.98
rwrist -49.405
rhand 11.3992 14.5092
rfingers 7.12502
rthumb 36.4522 -11.6949
lclavicle -2.1419e-014 2.5842e-014
lhumerus 39.6502 -38.2128 -4.51314
lradius 144.836
lwrist 60.2392
lhand 19.5476 22.5504
lfingers 7.12502
lthumb 44.1134 46.3909
rfemur 3.31484 2.88555 19.2543
rtibia 28.7027
rfoot -22.722 -9.9028
rtoes -23.7656
lfemur -0.416768 -7.63661 -20.0442
ltibia 33.453
lfoot -22.0249 3.53733
ltoes -16.1449
857
root 0.304316 16.8152 -0.369587 -9.41988 3.37392 -0.896623
lowerback 0.00974457 -0.903504 -2.01462
upperback 7.74728 -1.28002 2.32016
thorax 8.2208 -0.867098 3.48405
lowerneck 14.9156 -6.70223 -20.5205
upperneck 13.7927 -13.3355 18.6659
head 4.2819 -7.41682 9.3536
rclavicle -1.21259e-014 1.51076e-014
rhumerus 32.7195 36.7922 13.203
rradius 147.036
rwrist -49.9417
rhand 10.98 14.4859
rfingers 7.12502
rthumb 36.0552 -11.817
lclavicle -1.21259e-014 1.51076e-014
lhumerus 40.3205 -37.1874 -7.13056
lradius 144.992
lwrist 60.3267
lhand 19.0591 22.2592
lfingers 7.12502
lthumb 43.6576 46.2686
rfemur 3.18097 2.93313 19.1698
rtibia 28.796
rfoot -22.6478 -9.9837
rtoes -24.3761
lfemur -0.505477 -7.54462 -20.1074
ltibia 33.4668
lfoot -21.9989 3.57379
ltoes -16.7518
858
root 0.3053 16.8148 -0.379232 -9.40885 3.36808 -0.899616
lowerback -0.0181048 -0.905642 -1.89169
upperback 7.88565 -1.28436 2.24437
thorax 8.38284 -0.861514 3.33425
lowerneck 14.9302 -6.72644 -20.3883
upperneck 13.7365 -13.3491 18.7108
head 4.25785 -7.41678 9.34744
rclavicle 1.28713e-014 -9.54166e-015
rhumerus 33.8579 35.8944 15.9572
rradius 147.082
rwrist -50.2062
rhand 10.556 14.4976
rfingers 7.12502
rthumb 35.6535 -11.9033
lclavicle 1.28713e-014 -9.54166e-015
lhumerus 41.1557 -36.1765 -9.65999
lradius 145.166
lwrist 60.4539
lhand 18.6279 22.0294
lfingers 7.12502
lthumb 43.2548 46.1846
rfemur 3.11341 2.90826 19.1577
rtibia 28.8658
rfoot -22.5349 -10.0736
rtoes -25.3826
lfemur -0.565492 -7.48161 -20.0884
ltibia 33.4903
lfoot -22.0004 3.54923
ltoes -16.9661
859
root 0.30532 16.8165 -0.387594 -9.36521 3.35025 -0.934978
lowerback 0.0661136 -0.898282 -1.7094
upperback 7.86899 -1.27588 2.14148
thorax 8.30502 -0.838666 3.12389
lowerneck 15.1622 -6.71503 -20.2682
upperneck 13.6979 -13.3577 18.7751
head 4.20581 -7.42673 9.36348
rclavicle 1.42131e-014 -5.56597e-015
rhumerus 34.8139 35.2454 18.3752
rradius 147.061
rwrist -50.4664
rhand 10.2682 14.5758
rfingers 7.12502
rthumb 35.3806 -11.8905
lclavicle 1.42131e-014 -5.56597e-015
lhumerus 41.9515 -35.359 -12.0625
lradius 145.413
lwrist 60.5636
lhand 17.9737 22.0164
lfingers 7.12502
lthumb 42.643 46.3873
rfemur 2.98959 2.96389 19.2002
rtibia 28.9462
rfoot -22.5803 -10.0194
rtoes -25.0132
lfemur -0.660669 -7.41669 -20.0171
ltibia 33.5007
lfoot -21.9691 3.48725
ltoes -16.8231
860
root 0.305261 16.8166 -0.39628 -9.29437 3.3047 -0.963514
lowerback 0.237333 -0.880781 -1.50343
upperback 7.78156 -1.25292 2.02059
thorax 8.09674 -0.804234 2.88328
lowerneck 15.3024 -6.72446 -20.2765
upperneck 13.8106 -13.4273 18.93
head 4.2412 -7.46892 9.42657
rclavicle -2.76808e-014 3.33958e-014
rhumerus 35.686 34.7964 20.6023
rradius 147.043
rwrist -50.51
rhand 9.83543 14.7795
rfingers 7.12502
rthumb 34.9702 -11.7835
lclavicle -2.76808e-014 3.33958e-014
lhumerus 42.74 -34.8307 -14.266
lradius 145.59
lwrist 60.5079
lhand 17.3588 21.8985
lfingers 7.12502
lthumb 42.0671 46.4661
rfemur 2.83033 3.01171 19.238
rtibia 28.9889
rfoot -22.6738 -9.88756
rtoes -23.9841
lfemur -0.784586 -7.34386 -19.9501
ltibia 33.5273
lfoot -22.0576 3.4383
ltoes -16.7131
861
root 0.30577 16.8161 -0.403904 -9.23959 3.29646 -0.846596
lowerback 0.336844 -0.87239 -1.50362
upperback 7.74352 -1.23409 1.90703
thorax 7.99196 -0.78861 2.76567
lowerneck 15.4216 -6.70247 -20.4754
upperneck 13.9262 -13.4966 19.2459
head 4.30314 -7.51832 9.57955
rclavicle -6.95746e-016 -1.39149e-014
rhumerus 36.4598 34.4098 22.5703
rradius 146.998
rwrist -50.3695
rhand 9.47205 14.903
rfingers 7.12502
rthumb 34.6254 -11.7397
lclavicle -6.95746e-016 -1.39149e-014
lhumerus 43.4456 -34.4923 -16.1594
lradius 145.686
lwrist 60.2339
lhand 17.0714 21.7566
lfingers 7.12502
lthumb 41.7978 46.414
rfemur 2.71585 2.98354 19.0943
rtibia 29.0235
rfoot -22.6963 -9.84143
rtoes -23.8029
lfemur -0.878135 -7.27094 -20.0542
ltibia 33.5495
lfoot -22.1093 3.42168
ltoes -16.9471
862
root 0.305895 16.8166 -0.410686 -9.1883 3.29717 -0.820795
lowerback 0.380424 -0.915627 -1.54095
upperback 7.69834 -1.28907 1.88112
thorax 7.92092 -0.816113 2.75603
lowerneck 15.5972 -6.62167 -20.6109
upperneck 13.9692 -13.4596 19.4048
head 4.29843 -7.51606 9.67413
rclavicle -2.17172e-014 -2.38542e-015
rhumerus 37.1644 33.9654 24.1816
rradius 147.034
rwrist -50.2638
rhand 9.16956 14.7829
rfingers 7.12502
rthumb 34.3383 -11.9251
lclavicle -2.17172e-014 -2.38542e-015
lhumerus 43.829 -34.1724 -17.613
lradius 145.721
lwrist 59.9396
lhand 17.2745 21.5321
lfingers 7.12502
lthumb 41.9881 46.1261
rfemur 2.61758 2.98135 19.063
rtibia 29.0582
rfoot -22.6618 -9.88703
rtoes -24.0382
lfemur -0.981348 -7.22887 -20.0576
ltibia 33.5761
lfoot -22.0304 3.30231
ltoes -16.6717
863
root 0.304104 16.8172 -0.418054 -9.12327 3.30079 -0.846619
lowerback 0.437718 -0.975888 -1.5307
upperback 7.65306 -1.36852 1.84774
thorax 7.84166 -0.852146 2.71051
lowerneck 15.6602 -6.57526 -20.5817
upperneck 14.0127 -13.4119 19.4269
head 4.28992 -7.49528 9.68491
rclavicle -6.16232e-015 1.27222e-014
rhumerus 37.604 33.364 25.3603
rradius 147.238
rwrist -50.2805
rhand 8.87963 14.693
rfingers 7.12502
rthumb 34.0629 -12.0768
lclavicle -6.16232e-015 1.27222e-014
lhumerus 43.9708 -33.6947 -18.7149
lradius 145.78
lwrist 59.799
lhand 17.8328 21.1349
lfingers 7.12502
lthumb 42.5111 45.5513
rfemur 2.49219 3.03032 19.1083
rtibia 29.1044
rfoot -22.6649 -9.90483
rtoes -23.8779
lfemur -1.10245 -7.20397 -19.9978
ltibia 33.5945
lfoot -21.9311 3.29626
ltoes -16.811
864
root 0.302332 16.8191 -0.42424 -9.03714 3.2845 -0.86167
lowerback 0.482108 -1.02077 -1.51693
upperback 7.60971 -1.42778 1.82151
thorax 7.77086 -0.878382 2.6719
lowerneck 15.6005 -6.5669 -20.4883
upperneck 14.0708 -13.3784 19.3644
head 4.29929 -7.47198 9.64584
rclavicle 5.76476e-015 3.97569e-016
rhumerus 38.0081 32.8098 26.2479
rradius 147.381
rwrist -50.1693
rhand 8.6718 14.4678
rfingers 7.12502
rthumb 33.8655 -12.3457
lclavicle 5.76476e-015 3.97569e-016
lhumerus 44.0374 -33.1665 -19.5303
lradius 145.902
lwrist 59.8732
lhand 18.0526 20.7296
lfingers 7.12502
lthumb 42.7169 45.0748
rfemur 2.35249 3.05068 19.1362
rtibia 29.1386
rfoot -22.6528 -9.92922
rtoes -23.7304
lfemur -1.23468 -7.14893 -19.9423
ltibia 33.6117
lfoot -21.8918 3.24969
ltoes -16.8339
865
root 0.301437 16.8205 -0.429453 -8.9797 3.28863 -0.893062
lowerback 0.521008 -1.06783 -1.48602
upperback 7.56957 -1.49088 1.80008
thorax 7.70658 -0.905701 2.62854
lowerneck 15.4767 -6.56491 -20.4055
upperneck 14.2218 -13.3601 19.3342
head 4.35263 -7.45349 9.61725
rclavicle -5.91384e-015 1.63003e-014
rhumerus 38.3808 32.3666 26.7529
rradius 147.458
rwrist -49.9717
rhand 8.5156 14.1306
rfingers 7.12502
rthumb 33.7171 -12.7155
lclavicle -5.91384e-015 1.63003e-014
lhumerus 44.1554 -32.9528 -20.1493
lradius 145.973
lwrist 59.9013
lhand 17.7283 20.7034
lfingers 7.12502
lthumb 42.4132 45.1535
rfemur 2.25319 3.04639 19.1693
rtibia 29.1668
rfoot -22.6501 -9.90965
rtoes -23.4175
lfemur -1.32557 -7.12376 -19.8894
ltibia 33.6207
lfoot -21.8829 3.19453
ltoes -16.765
